<svg width="1250" height="574" viewBox="0 0 1250 574" fill="none" xmlns="http://www.w3.org/2000/svg">
<rect width="1249.71" height="573.06" fill="#101013"/>
<rect x="27" y="31" width="107.108" height="29.3325" rx="14.6662" stroke="#E4E4E7" stroke-width="4"/>
<path d="M43 45H98.5583" stroke="#E4E4E7" stroke-width="12" stroke-linecap="round"/>
<path d="M158.049 57.3C156.549 57.3 155.149 57.02 153.849 56.46C152.549 55.9 151.409 55.13 150.429 54.15C149.449 53.15 148.679 52 148.119 50.7C147.579 49.38 147.309 47.97 147.309 46.47C147.309 44.97 147.579 43.57 148.119 42.27C148.679 40.97 149.439 39.83 150.399 38.85C151.379 37.85 152.509 37.08 153.789 36.54C155.089 35.98 156.489 35.7 157.989 35.7C159.489 35.7 160.879 35.98 162.159 36.54C163.459 37.08 164.599 37.85 165.579 38.85C166.559 39.83 167.319 40.98 167.859 42.3C168.419 43.6 168.699 45 168.699 46.5C168.699 48 168.419 49.41 167.859 50.73C167.319 52.03 166.559 53.17 165.579 54.15C164.619 55.13 163.489 55.9 162.189 56.46C160.909 57.02 159.529 57.3 158.049 57.3ZM157.989 54C159.409 54 160.649 53.68 161.709 53.04C162.789 52.4 163.629 51.52 164.229 50.4C164.849 49.26 165.159 47.95 165.159 46.47C165.159 45.37 164.979 44.37 164.619 43.47C164.279 42.55 163.789 41.76 163.149 41.1C162.509 40.42 161.749 39.9 160.869 39.54C160.009 39.18 159.049 39 157.989 39C156.589 39 155.349 39.32 154.269 39.96C153.209 40.58 152.369 41.45 151.749 42.57C151.149 43.69 150.849 44.99 150.849 46.47C150.849 47.57 151.019 48.59 151.359 49.53C151.719 50.45 152.209 51.24 152.829 51.9C153.469 52.56 154.229 53.08 155.109 53.46C155.989 53.82 156.949 54 157.989 54ZM179.288 57.3C177.868 57.3 176.578 56.97 175.418 56.31C174.278 55.65 173.378 54.75 172.718 53.61C172.058 52.47 171.728 51.2 171.728 49.8C171.728 48.38 172.058 47.11 172.718 45.99C173.378 44.85 174.278 43.95 175.418 43.29C176.578 42.63 177.868 42.3 179.288 42.3C180.408 42.3 181.448 42.52 182.408 42.96C183.388 43.38 184.218 43.99 184.898 44.79L182.738 46.98C182.318 46.48 181.808 46.11 181.208 45.87C180.628 45.61 179.988 45.48 179.288 45.48C178.468 45.48 177.738 45.67 177.098 46.05C176.478 46.41 175.988 46.91 175.628 47.55C175.288 48.19 175.118 48.94 175.118 49.8C175.118 50.64 175.288 51.39 175.628 52.05C175.988 52.69 176.478 53.2 177.098 53.58C177.738 53.94 178.468 54.12 179.288 54.12C179.988 54.12 180.628 54 181.208 53.76C181.808 53.5 182.318 53.12 182.738 52.62L184.898 54.81C184.218 55.61 183.388 56.23 182.408 56.67C181.448 57.09 180.408 57.3 179.288 57.3ZM194.087 57.3C192.867 57.3 191.777 57.03 190.817 56.49C189.877 55.95 189.137 55.21 188.597 54.27C188.077 53.31 187.817 52.21 187.817 50.97V42.6H191.117V50.82C191.117 51.52 191.227 52.12 191.447 52.62C191.687 53.1 192.027 53.47 192.467 53.73C192.927 53.99 193.467 54.12 194.087 54.12C195.047 54.12 195.777 53.84 196.277 53.28C196.797 52.7 197.057 51.88 197.057 50.82V42.6H200.357V50.97C200.357 52.23 200.087 53.34 199.547 54.3C199.027 55.24 198.297 55.98 197.357 56.52C196.417 57.04 195.327 57.3 194.087 57.3ZM204.575 57V35.4H207.875V57H204.575ZM218.478 57.3C217.178 57.3 215.998 56.97 214.938 56.31C213.898 55.65 213.068 54.76 212.448 53.64C211.848 52.5 211.548 51.23 211.548 49.83C211.548 48.41 211.848 47.14 212.448 46.02C213.068 44.88 213.898 43.98 214.938 43.32C215.998 42.64 217.178 42.3 218.478 42.3C219.578 42.3 220.548 42.54 221.388 43.02C222.248 43.48 222.928 44.12 223.428 44.94C223.928 45.76 224.178 46.69 224.178 47.73V51.87C224.178 52.91 223.928 53.84 223.428 54.66C222.948 55.48 222.278 56.13 221.418 56.61C220.558 57.07 219.578 57.3 218.478 57.3ZM219.018 54.18C220.238 54.18 221.218 53.77 221.958 52.95C222.718 52.13 223.098 51.08 223.098 49.8C223.098 48.94 222.928 48.18 222.588 47.52C222.248 46.86 221.768 46.35 221.148 45.99C220.548 45.61 219.838 45.42 219.018 45.42C218.218 45.42 217.508 45.61 216.888 45.99C216.288 46.35 215.808 46.86 215.448 47.52C215.108 48.18 214.938 48.94 214.938 49.8C214.938 50.66 215.108 51.42 215.448 52.08C215.808 52.74 216.288 53.26 216.888 53.64C217.508 54 218.218 54.18 219.018 54.18ZM222.888 57V53.13L223.458 49.62L222.888 46.14V42.6H226.188V57H222.888ZM230.75 57V42.6H234.05V57H230.75ZM234.05 48.99L232.91 48.42C232.91 46.6 233.31 45.13 234.11 44.01C234.93 42.87 236.16 42.3 237.8 42.3C238.52 42.3 239.17 42.43 239.75 42.69C240.33 42.95 240.87 43.37 241.37 43.95L239.21 46.17C238.95 45.89 238.66 45.69 238.34 45.57C238.02 45.45 237.65 45.39 237.23 45.39C236.31 45.39 235.55 45.68 234.95 46.26C234.35 46.84 234.05 47.75 234.05 48.99Z" fill="#E4E4E7"/>
<path d="M43.4551 356V239.04H52.2951L55.8651 253.83V356H43.4551ZM124.375 356L50.4251 255.7L52.2951 239.04L126.075 339.34L124.375 356ZM124.375 356L120.635 341.89V239.04H133.215V356H124.375ZM196.306 357.7C188.6 357.7 181.573 355.83 175.226 352.09C168.993 348.35 164.006 343.307 160.266 336.96C156.64 330.613 154.826 323.53 154.826 315.71C154.826 308.003 156.64 301.033 160.266 294.8C164.006 288.567 168.993 283.637 175.226 280.01C181.573 276.27 188.6 274.4 196.306 274.4C204.126 274.4 211.153 276.213 217.386 279.84C223.62 283.467 228.55 288.453 232.176 294.8C235.916 301.033 237.786 308.003 237.786 315.71C237.786 323.643 235.916 330.783 232.176 337.13C228.55 343.363 223.62 348.35 217.386 352.09C211.153 355.83 204.126 357.7 196.306 357.7ZM196.306 346.14C201.973 346.14 206.96 344.837 211.266 342.23C215.686 339.623 219.143 335.997 221.636 331.35C224.243 326.703 225.546 321.49 225.546 315.71C225.546 309.93 224.243 304.83 221.636 300.41C219.143 295.877 215.686 292.307 211.266 289.7C206.96 287.093 201.973 285.79 196.306 285.79C190.753 285.79 185.766 287.093 181.346 289.7C176.926 292.307 173.47 295.877 170.976 300.41C168.483 304.83 167.236 309.93 167.236 315.71C167.236 321.603 168.483 326.873 170.976 331.52C173.47 336.053 176.926 339.623 181.346 342.23C185.766 344.837 190.753 346.14 196.306 346.14ZM266.305 356V242.44H278.205V356H266.305ZM246.075 286.81V276.1H298.265V286.81H246.075ZM348.725 357.7C340.678 357.7 333.481 355.887 327.135 352.26C320.788 348.633 315.745 343.647 312.005 337.3C308.378 330.953 306.565 323.813 306.565 315.88C306.565 308.06 308.378 301.033 312.005 294.8C315.631 288.453 320.561 283.467 326.795 279.84C333.028 276.213 339.998 274.4 347.705 274.4C354.958 274.4 361.361 276.043 366.915 279.33C372.581 282.617 377.001 287.207 380.175 293.1C383.461 298.88 385.105 305.567 385.105 313.16C385.105 314.067 385.048 315.143 384.935 316.39C384.821 317.523 384.595 318.883 384.255 320.47H315.065V310.27H377.795L373.545 314.01C373.658 308.117 372.638 303.073 370.485 298.88C368.445 294.573 365.441 291.287 361.475 289.02C357.621 286.64 352.918 285.45 347.365 285.45C341.585 285.45 336.541 286.697 332.235 289.19C327.928 291.683 324.528 295.197 322.035 299.73C319.655 304.15 318.465 309.42 318.465 315.54C318.465 321.66 319.711 327.043 322.205 331.69C324.811 336.337 328.381 339.963 332.915 342.57C337.561 345.177 342.888 346.48 348.895 346.48C353.768 346.48 358.245 345.63 362.325 343.93C366.405 342.117 369.861 339.453 372.695 335.94L380.345 343.76C376.605 348.18 371.958 351.637 366.405 354.13C360.965 356.51 355.071 357.7 348.725 357.7ZM444.619 357.7C438.499 357.7 433.003 356.453 428.129 353.96C423.256 351.467 419.233 348.067 416.059 343.76C412.999 339.34 411.129 334.24 410.449 328.46V303.47C411.129 297.577 413.056 292.477 416.229 288.17C419.403 283.75 423.426 280.35 428.299 277.97C433.286 275.59 438.726 274.4 444.619 274.4C451.986 274.4 458.616 276.27 464.509 280.01C470.403 283.637 475.049 288.623 478.449 294.97C481.963 301.203 483.719 308.287 483.719 316.22C483.719 324.04 482.019 331.067 478.619 337.3C475.219 343.533 470.516 348.52 464.509 352.26C458.616 355.887 451.986 357.7 444.619 357.7ZM403.309 356V235.64H415.209V295.65L412.829 314.86L415.209 334.58V356H403.309ZM442.579 346.31C448.246 346.31 453.233 345.063 457.539 342.57C461.846 339.963 465.189 336.393 467.569 331.86C470.063 327.213 471.309 321.943 471.309 316.05C471.309 310.043 470.063 304.773 467.569 300.24C465.189 295.707 461.846 292.137 457.539 289.53C453.233 286.923 448.303 285.62 442.749 285.62C437.196 285.62 432.266 286.923 427.959 289.53C423.766 292.137 420.479 295.707 418.099 300.24C415.719 304.773 414.529 310.043 414.529 316.05C414.529 321.943 415.719 327.213 418.099 331.86C420.479 336.393 423.766 339.963 427.959 342.57C432.153 345.063 437.026 346.31 442.579 346.31ZM538.963 357.7C531.256 357.7 524.229 355.83 517.883 352.09C511.649 348.35 506.663 343.307 502.923 336.96C499.296 330.613 497.483 323.53 497.483 315.71C497.483 308.003 499.296 301.033 502.923 294.8C506.663 288.567 511.649 283.637 517.883 280.01C524.229 276.27 531.256 274.4 538.963 274.4C546.783 274.4 553.809 276.213 560.043 279.84C566.276 283.467 571.206 288.453 574.833 294.8C578.573 301.033 580.443 308.003 580.443 315.71C580.443 323.643 578.573 330.783 574.833 337.13C571.206 343.363 566.276 348.35 560.043 352.09C553.809 355.83 546.783 357.7 538.963 357.7ZM538.963 346.14C544.629 346.14 549.616 344.837 553.923 342.23C558.343 339.623 561.799 335.997 564.293 331.35C566.899 326.703 568.203 321.49 568.203 315.71C568.203 309.93 566.899 304.83 564.293 300.41C561.799 295.877 558.343 292.307 553.923 289.7C549.616 287.093 544.629 285.79 538.963 285.79C533.409 285.79 528.423 287.093 524.003 289.7C519.583 292.307 516.126 295.877 513.633 300.41C511.139 304.83 509.893 309.93 509.893 315.71C509.893 321.603 511.139 326.873 513.633 331.52C516.126 336.053 519.583 339.623 524.003 342.23C528.423 344.837 533.409 346.14 538.963 346.14ZM635.584 357.7C627.877 357.7 620.85 355.83 614.504 352.09C608.27 348.35 603.284 343.307 599.544 336.96C595.917 330.613 594.104 323.53 594.104 315.71C594.104 308.003 595.917 301.033 599.544 294.8C603.284 288.567 608.27 283.637 614.504 280.01C620.85 276.27 627.877 274.4 635.584 274.4C643.404 274.4 650.43 276.213 656.664 279.84C662.897 283.467 667.827 288.453 671.454 294.8C675.194 301.033 677.064 308.003 677.064 315.71C677.064 323.643 675.194 330.783 671.454 337.13C667.827 343.363 662.897 348.35 656.664 352.09C650.43 355.83 643.404 357.7 635.584 357.7ZM635.584 346.14C641.25 346.14 646.237 344.837 650.544 342.23C654.964 339.623 658.42 335.997 660.914 331.35C663.52 326.703 664.824 321.49 664.824 315.71C664.824 309.93 663.52 304.83 660.914 300.41C658.42 295.877 654.964 292.307 650.544 289.7C646.237 287.093 641.25 285.79 635.584 285.79C630.03 285.79 625.044 287.093 620.624 289.7C616.204 292.307 612.747 295.877 610.254 300.41C607.76 304.83 606.514 309.93 606.514 315.71C606.514 321.603 607.76 326.873 610.254 331.52C612.747 336.053 616.204 339.623 620.624 342.23C625.044 344.837 630.03 346.14 635.584 346.14ZM747.505 356L706.705 315.03L746.825 276.1H761.615L717.925 318.09L718.435 311.29L763.315 356H747.505ZM695.995 356V235.64H707.895V356H695.995ZM798.004 357.7C793.697 357.7 789.561 357.133 785.594 356C781.627 354.753 778.001 353.053 774.714 350.9C771.541 348.747 768.764 346.197 766.384 343.25L774.034 335.43C777.207 339.283 780.777 342.173 784.744 344.1C788.824 345.913 793.357 346.82 798.344 346.82C803.671 346.82 807.807 345.8 810.754 343.76C813.814 341.72 815.344 338.887 815.344 335.26C815.344 331.86 814.267 329.197 812.114 327.27C809.961 325.343 807.184 323.813 803.784 322.68C800.497 321.547 796.984 320.47 793.244 319.45C789.504 318.317 785.934 316.957 782.534 315.37C779.134 313.67 776.357 311.347 774.204 308.4C772.164 305.453 771.144 301.6 771.144 296.84C771.144 292.307 772.221 288.397 774.374 285.11C776.641 281.71 779.814 279.103 783.894 277.29C788.087 275.363 793.017 274.4 798.684 274.4C804.691 274.4 810.131 275.477 815.004 277.63C819.877 279.783 823.787 282.957 826.734 287.15L819.084 294.8C816.704 291.74 813.701 289.417 810.074 287.83C806.561 286.13 802.594 285.28 798.174 285.28C793.074 285.28 789.164 286.3 786.444 288.34C783.837 290.267 782.534 292.817 782.534 295.99C782.534 299.05 783.611 301.487 785.764 303.3C787.917 305 790.637 306.417 793.924 307.55C797.324 308.57 800.894 309.647 804.634 310.78C808.374 311.8 811.944 313.217 815.344 315.03C818.744 316.73 821.464 319.11 823.504 322.17C825.657 325.117 826.734 329.14 826.734 334.24C826.734 341.38 824.127 347.103 818.914 351.41C813.814 355.603 806.844 357.7 798.004 357.7Z" fill="#FAFAFA"/>
<path d="M35.5256 545.18C34.5523 545.18 33.6856 545 32.9256 544.64C32.179 544.28 31.579 543.773 31.1256 543.12L32.2856 541.94C32.6723 542.433 33.1323 542.807 33.6656 543.06C34.199 543.327 34.8323 543.46 35.5656 543.46C36.539 543.46 37.3056 543.2 37.8656 542.68C38.439 542.173 38.7256 541.487 38.7256 540.62V538.26L39.0456 536.12L38.7256 534V531.5H40.5256V540.62C40.5256 541.527 40.3123 542.32 39.8856 543C39.4723 543.68 38.8856 544.213 38.1256 544.6C37.379 544.987 36.5123 545.18 35.5256 545.18ZM35.5256 540.84C34.659 540.84 33.879 540.633 33.1856 540.22C32.5056 539.807 31.9656 539.24 31.5656 538.52C31.1656 537.787 30.9656 536.967 30.9656 536.06C30.9656 535.153 31.1656 534.347 31.5656 533.64C31.9656 532.92 32.5056 532.353 33.1856 531.94C33.879 531.513 34.659 531.3 35.5256 531.3C36.2723 531.3 36.9323 531.447 37.5056 531.74C38.079 532.033 38.5323 532.447 38.8656 532.98C39.2123 533.5 39.399 534.113 39.4256 534.82V537.34C39.3856 538.033 39.1923 538.647 38.8456 539.18C38.5123 539.7 38.059 540.107 37.4856 540.4C36.9123 540.693 36.259 540.84 35.5256 540.84ZM35.8856 539.14C36.4723 539.14 36.9856 539.013 37.4256 538.76C37.879 538.507 38.2256 538.153 38.4656 537.7C38.7056 537.233 38.8256 536.693 38.8256 536.08C38.8256 535.467 38.699 534.933 38.4456 534.48C38.2056 534.013 37.8656 533.653 37.4256 533.4C36.9856 533.133 36.4656 533 35.8656 533C35.2656 533 34.739 533.133 34.2856 533.4C33.8323 533.653 33.4723 534.013 33.2056 534.48C32.9523 534.933 32.8256 535.46 32.8256 536.06C32.8256 536.66 32.9523 537.193 33.2056 537.66C33.4723 538.127 33.8323 538.493 34.2856 538.76C34.7523 539.013 35.2856 539.14 35.8856 539.14ZM43.1877 541V531.5H44.9877V541H43.1877ZM44.0877 529.6C43.7543 529.6 43.481 529.493 43.2677 529.28C43.0543 529.053 42.9477 528.773 42.9477 528.44C42.9477 528.12 43.0543 527.853 43.2677 527.64C43.481 527.413 43.7543 527.3 44.0877 527.3C44.421 527.3 44.6943 527.413 44.9077 527.64C45.121 527.853 45.2277 528.12 45.2277 528.44C45.2277 528.773 45.121 529.053 44.9077 529.28C44.6943 529.493 44.421 529.6 44.0877 529.6ZM49.1003 541V527.52H50.9003V541H49.1003ZM46.7603 533.14V531.5H53.2403V533.14H46.7603ZM61.7236 541V535.46C61.7236 534.74 61.4969 534.147 61.0436 533.68C60.5903 533.213 60.0036 532.98 59.2836 532.98C58.8036 532.98 58.3769 533.087 58.0036 533.3C57.6303 533.513 57.3369 533.807 57.1236 534.18C56.9103 534.553 56.8036 534.98 56.8036 535.46L56.0636 535.04C56.0636 534.32 56.2236 533.68 56.5436 533.12C56.8636 532.56 57.3103 532.12 57.8836 531.8C58.4569 531.467 59.1036 531.3 59.8236 531.3C60.5436 531.3 61.1769 531.46 61.7236 531.78C62.2836 532.1 62.7236 532.547 63.0436 533.12C63.3636 533.693 63.5236 534.353 63.5236 535.1V541H61.7236ZM55.0036 541V526.72H56.8036V541H55.0036ZM69.7806 541.2C69.0073 541.2 68.3073 541.027 67.6806 540.68C67.0673 540.32 66.5873 539.827 66.2406 539.2C65.894 538.573 65.7206 537.847 65.7206 537.02V531.5H67.5206V536.94C67.5206 537.46 67.6073 537.913 67.7806 538.3C67.9673 538.673 68.234 538.96 68.5806 539.16C68.9273 539.36 69.334 539.46 69.8006 539.46C70.5073 539.46 71.0606 539.24 71.4606 538.8C71.8606 538.347 72.0606 537.727 72.0606 536.94V531.5H73.8606V537.02C73.8606 537.847 73.6873 538.573 73.3406 539.2C72.994 539.827 72.514 540.32 71.9006 540.68C71.3006 541.027 70.594 541.2 69.7806 541.2ZM81.2731 541.2C80.5531 541.2 79.8998 541.053 79.3131 540.76C78.7398 540.453 78.2798 540.033 77.9331 539.5C77.5865 538.967 77.3931 538.36 77.3531 537.68V534.82C77.3931 534.127 77.5865 533.52 77.9331 533C78.2931 532.467 78.7598 532.053 79.3331 531.76C79.9198 531.453 80.5665 531.3 81.2731 531.3C82.1398 531.3 82.9198 531.52 83.6131 531.96C84.3198 532.4 84.8731 532.993 85.2731 533.74C85.6731 534.487 85.8731 535.327 85.8731 536.26C85.8731 537.193 85.6731 538.033 85.2731 538.78C84.8731 539.527 84.3198 540.12 83.6131 540.56C82.9198 540.987 82.1398 541.2 81.2731 541.2ZM76.2731 541V526.72H78.0731V533.82L77.7331 536.12L78.0731 538.44V541H76.2731ZM80.9731 539.5C81.5731 539.5 82.0998 539.36 82.5531 539.08C83.0065 538.8 83.3665 538.42 83.6331 537.94C83.8998 537.447 84.0331 536.88 84.0331 536.24C84.0331 535.613 83.8998 535.053 83.6331 534.56C83.3665 534.067 83.0065 533.687 82.5531 533.42C82.0998 533.14 81.5798 533 80.9931 533C80.3931 533 79.8665 533.14 79.4131 533.42C78.9598 533.687 78.6065 534.067 78.3531 534.56C78.0998 535.053 77.9731 535.62 77.9731 536.26C77.9731 536.887 78.0931 537.447 78.3331 537.94C78.5865 538.42 78.9398 538.8 79.3931 539.08C79.8598 539.36 80.3865 539.5 80.9731 539.5ZM89.1031 541.2C88.7298 541.2 88.4165 541.073 88.1631 540.82C87.9231 540.553 87.8031 540.24 87.8031 539.88C87.8031 539.507 87.9231 539.2 88.1631 538.96C88.4165 538.707 88.7298 538.58 89.1031 538.58C89.4765 538.58 89.7831 538.707 90.0231 538.96C90.2765 539.2 90.4031 539.507 90.4031 539.88C90.4031 540.24 90.2765 540.553 90.0231 540.82C89.7831 541.073 89.4765 541.2 89.1031 541.2ZM97.2733 541.2C96.3399 541.2 95.4933 540.98 94.7333 540.54C93.9866 540.1 93.3933 539.507 92.9533 538.76C92.5266 538 92.3133 537.16 92.3133 536.24C92.3133 535.307 92.5266 534.467 92.9533 533.72C93.3933 532.973 93.9866 532.387 94.7333 531.96C95.4933 531.52 96.3399 531.3 97.2733 531.3C98.0066 531.3 98.6866 531.44 99.3133 531.72C99.9399 531.987 100.48 532.38 100.933 532.9L99.7333 534.1C99.4399 533.753 99.0799 533.493 98.6533 533.32C98.2399 533.133 97.7799 533.04 97.2733 533.04C96.6733 533.04 96.1399 533.18 95.6733 533.46C95.2066 533.727 94.8399 534.1 94.5733 534.58C94.3066 535.06 94.1733 535.613 94.1733 536.24C94.1733 536.867 94.3066 537.42 94.5733 537.9C94.8399 538.38 95.2066 538.76 95.6733 539.04C96.1399 539.32 96.6733 539.46 97.2733 539.46C97.7799 539.46 98.2399 539.373 98.6533 539.2C99.0799 539.013 99.4466 538.747 99.7533 538.4L100.933 539.6C100.493 540.107 99.9533 540.5 99.3133 540.78C98.6866 541.06 98.0066 541.2 97.2733 541.2ZM106.863 541.2C105.93 541.2 105.09 540.98 104.343 540.54C103.596 540.1 103.003 539.507 102.563 538.76C102.123 538 101.903 537.153 101.903 536.22C101.903 535.3 102.123 534.473 102.563 533.74C103.003 532.993 103.596 532.4 104.343 531.96C105.09 531.52 105.93 531.3 106.863 531.3C107.783 531.3 108.616 531.52 109.363 531.96C110.123 532.387 110.723 532.973 111.163 533.72C111.603 534.467 111.823 535.3 111.823 536.22C111.823 537.153 111.603 538 111.163 538.76C110.723 539.507 110.123 540.1 109.363 540.54C108.616 540.98 107.783 541.2 106.863 541.2ZM106.863 539.46C107.463 539.46 107.996 539.32 108.463 539.04C108.93 538.76 109.296 538.38 109.563 537.9C109.83 537.407 109.963 536.847 109.963 536.22C109.963 535.607 109.823 535.06 109.543 534.58C109.276 534.1 108.91 533.727 108.443 533.46C107.99 533.18 107.463 533.04 106.863 533.04C106.263 533.04 105.73 533.18 105.263 533.46C104.796 533.727 104.43 534.1 104.163 534.58C103.896 535.06 103.763 535.607 103.763 536.22C103.763 536.847 103.896 537.407 104.163 537.9C104.43 538.38 104.796 538.76 105.263 539.04C105.73 539.32 106.263 539.46 106.863 539.46ZM113.851 541V531.5H115.651V541H113.851ZM120.271 541V535.26C120.271 534.553 120.051 534 119.611 533.6C119.185 533.187 118.645 532.98 117.991 532.98C117.551 532.98 117.158 533.073 116.811 533.26C116.465 533.447 116.185 533.707 115.971 534.04C115.758 534.373 115.651 534.773 115.651 535.24L114.911 534.88C114.911 534.16 115.065 533.533 115.371 533C115.691 532.467 116.125 532.053 116.671 531.76C117.218 531.453 117.831 531.3 118.511 531.3C119.178 531.3 119.778 531.447 120.311 531.74C120.858 532.033 121.285 532.447 121.591 532.98C121.911 533.513 122.071 534.147 122.071 534.88V541H120.271ZM126.691 541V535.26C126.691 534.553 126.471 534 126.031 533.6C125.605 533.187 125.071 532.98 124.431 532.98C123.991 532.98 123.591 533.073 123.231 533.26C122.885 533.447 122.605 533.707 122.391 534.04C122.178 534.373 122.071 534.773 122.071 535.24L121.051 534.88C121.091 534.147 121.285 533.52 121.631 533C121.991 532.467 122.451 532.053 123.011 531.76C123.571 531.453 124.185 531.3 124.851 531.3C125.545 531.3 126.165 531.447 126.711 531.74C127.258 532.033 127.691 532.447 128.011 532.98C128.345 533.513 128.511 534.153 128.511 534.9V541H126.691ZM129.921 541.8L135.481 526.34H137.161L131.621 541.8H129.921ZM142.039 541.2C141.106 541.2 140.266 540.98 139.519 540.54C138.772 540.1 138.179 539.507 137.739 538.76C137.299 538 137.079 537.153 137.079 536.22C137.079 535.3 137.299 534.473 137.739 533.74C138.179 532.993 138.772 532.4 139.519 531.96C140.266 531.52 141.106 531.3 142.039 531.3C142.959 531.3 143.792 531.52 144.539 531.96C145.299 532.387 145.899 532.973 146.339 533.72C146.779 534.467 146.999 535.3 146.999 536.22C146.999 537.153 146.779 538 146.339 538.76C145.899 539.507 145.299 540.1 144.539 540.54C143.792 540.98 142.959 541.2 142.039 541.2ZM142.039 539.46C142.639 539.46 143.172 539.32 143.639 539.04C144.106 538.76 144.472 538.38 144.739 537.9C145.006 537.407 145.139 536.847 145.139 536.22C145.139 535.607 144.999 535.06 144.719 534.58C144.452 534.1 144.086 533.727 143.619 533.46C143.166 533.18 142.639 533.04 142.039 533.04C141.439 533.04 140.906 533.18 140.439 533.46C139.972 533.727 139.606 534.1 139.339 534.58C139.072 535.06 138.939 535.607 138.939 536.22C138.939 536.847 139.072 537.407 139.339 537.9C139.606 538.38 139.972 538.76 140.439 539.04C140.906 539.32 141.439 539.46 142.039 539.46ZM153.367 541.2C152.434 541.2 151.587 540.98 150.827 540.54C150.08 540.1 149.487 539.507 149.047 538.76C148.62 538 148.407 537.16 148.407 536.24C148.407 535.307 148.62 534.467 149.047 533.72C149.487 532.973 150.08 532.387 150.827 531.96C151.587 531.52 152.434 531.3 153.367 531.3C154.1 531.3 154.78 531.44 155.407 531.72C156.034 531.987 156.574 532.38 157.027 532.9L155.827 534.1C155.534 533.753 155.174 533.493 154.747 533.32C154.334 533.133 153.874 533.04 153.367 533.04C152.767 533.04 152.234 533.18 151.767 533.46C151.3 533.727 150.934 534.1 150.667 534.58C150.4 535.06 150.267 535.613 150.267 536.24C150.267 536.867 150.4 537.42 150.667 537.9C150.934 538.38 151.3 538.76 151.767 539.04C152.234 539.32 152.767 539.46 153.367 539.46C153.874 539.46 154.334 539.373 154.747 539.2C155.174 539.013 155.54 538.747 155.847 538.4L157.027 539.6C156.587 540.107 156.047 540.5 155.407 540.78C154.78 541.06 154.1 541.2 153.367 541.2ZM162.632 541.2C161.859 541.2 161.159 541.027 160.532 540.68C159.919 540.32 159.439 539.827 159.092 539.2C158.746 538.573 158.572 537.847 158.572 537.02V531.5H160.372V536.94C160.372 537.46 160.459 537.913 160.632 538.3C160.819 538.673 161.086 538.96 161.432 539.16C161.779 539.36 162.186 539.46 162.652 539.46C163.359 539.46 163.912 539.24 164.312 538.8C164.712 538.347 164.912 537.727 164.912 536.94V531.5H166.712V537.02C166.712 537.847 166.539 538.573 166.192 539.2C165.846 539.827 165.366 540.32 164.752 540.68C164.152 541.027 163.446 541.2 162.632 541.2ZM169.125 541V526.72H170.925V541H169.125ZM177.598 541.2C176.732 541.2 175.945 540.987 175.238 540.56C174.532 540.12 173.972 539.527 173.558 538.78C173.158 538.033 172.958 537.193 172.958 536.26C172.958 535.327 173.158 534.487 173.558 533.74C173.972 532.993 174.525 532.4 175.218 531.96C175.925 531.52 176.718 531.3 177.598 531.3C178.318 531.3 178.958 531.453 179.518 531.76C180.092 532.053 180.552 532.467 180.898 533C181.245 533.52 181.438 534.127 181.478 534.82V537.68C181.438 538.36 181.245 538.967 180.898 539.5C180.565 540.033 180.112 540.453 179.538 540.76C178.978 541.053 178.332 541.2 177.598 541.2ZM177.898 539.5C178.792 539.5 179.512 539.2 180.058 538.6C180.605 537.987 180.878 537.207 180.878 536.26C180.878 535.607 180.752 535.04 180.498 534.56C180.258 534.067 179.912 533.687 179.458 533.42C179.005 533.14 178.478 533 177.878 533C177.278 533 176.745 533.14 176.278 533.42C175.825 533.7 175.465 534.087 175.198 534.58C174.945 535.06 174.818 535.613 174.818 536.24C174.818 536.88 174.945 537.447 175.198 537.94C175.465 538.42 175.832 538.8 176.298 539.08C176.765 539.36 177.298 539.5 177.898 539.5ZM180.758 541V538.44L181.098 536.12L180.758 533.82V531.5H182.578V541H180.758ZM185.199 541V531.5H186.999V541H185.199ZM186.999 535.58L186.319 535.28C186.319 534.067 186.599 533.1 187.159 532.38C187.719 531.66 188.526 531.3 189.579 531.3C190.059 531.3 190.492 531.387 190.879 531.56C191.266 531.72 191.626 531.993 191.959 532.38L190.779 533.6C190.579 533.387 190.359 533.233 190.119 533.14C189.879 533.047 189.599 533 189.279 533C188.612 533 188.066 533.213 187.639 533.64C187.212 534.067 186.999 534.713 186.999 535.58ZM197.314 541.2C196.367 541.2 195.514 540.987 194.754 540.56C193.994 540.12 193.394 539.527 192.954 538.78C192.514 538.033 192.294 537.187 192.294 536.24C192.294 535.307 192.507 534.467 192.934 533.72C193.374 532.973 193.96 532.387 194.694 531.96C195.44 531.52 196.274 531.3 197.194 531.3C198.074 531.3 198.847 531.5 199.514 531.9C200.194 532.3 200.72 532.853 201.094 533.56C201.48 534.267 201.674 535.067 201.674 535.96C201.674 536.093 201.667 536.24 201.654 536.4C201.64 536.547 201.614 536.72 201.574 536.92H193.554V535.42H200.614L199.954 536C199.954 535.36 199.84 534.82 199.614 534.38C199.387 533.927 199.067 533.58 198.654 533.34C198.24 533.087 197.74 532.96 197.154 532.96C196.54 532.96 196 533.093 195.534 533.36C195.067 533.627 194.707 534 194.454 534.48C194.2 534.96 194.074 535.527 194.074 536.18C194.074 536.847 194.207 537.433 194.474 537.94C194.74 538.433 195.12 538.82 195.614 539.1C196.107 539.367 196.674 539.5 197.314 539.5C197.847 539.5 198.334 539.407 198.774 539.22C199.227 539.033 199.614 538.753 199.934 538.38L201.094 539.56C200.64 540.093 200.08 540.5 199.414 540.78C198.76 541.06 198.06 541.2 197.314 541.2ZM210.356 541V535.46C210.356 534.74 210.13 534.147 209.676 533.68C209.223 533.213 208.636 532.98 207.916 532.98C207.436 532.98 207.01 533.087 206.636 533.3C206.263 533.513 205.97 533.807 205.756 534.18C205.543 534.553 205.436 534.98 205.436 535.46L204.696 535.04C204.696 534.32 204.856 533.68 205.176 533.12C205.496 532.56 205.943 532.12 206.516 531.8C207.09 531.467 207.736 531.3 208.456 531.3C209.176 531.3 209.81 531.48 210.356 531.84C210.916 532.2 211.356 532.673 211.676 533.26C211.996 533.833 212.156 534.447 212.156 535.1V541H210.356ZM203.636 541V531.5H205.436V541H203.636ZM218.533 545.18C217.56 545.18 216.693 545 215.933 544.64C215.187 544.28 214.587 543.773 214.133 543.12L215.293 541.94C215.68 542.433 216.14 542.807 216.673 543.06C217.207 543.327 217.84 543.46 218.573 543.46C219.547 543.46 220.313 543.2 220.873 542.68C221.447 542.173 221.733 541.487 221.733 540.62V538.26L222.053 536.12L221.733 534V531.5H223.533V540.62C223.533 541.527 223.32 542.32 222.893 543C222.48 543.68 221.893 544.213 221.133 544.6C220.387 544.987 219.52 545.18 218.533 545.18ZM218.533 540.84C217.667 540.84 216.887 540.633 216.193 540.22C215.513 539.807 214.973 539.24 214.573 538.52C214.173 537.787 213.973 536.967 213.973 536.06C213.973 535.153 214.173 534.347 214.573 533.64C214.973 532.92 215.513 532.353 216.193 531.94C216.887 531.513 217.667 531.3 218.533 531.3C219.28 531.3 219.94 531.447 220.513 531.74C221.087 532.033 221.54 532.447 221.873 532.98C222.22 533.5 222.407 534.113 222.433 534.82V537.34C222.393 538.033 222.2 538.647 221.853 539.18C221.52 539.7 221.067 540.107 220.493 540.4C219.92 540.693 219.267 540.84 218.533 540.84ZM218.893 539.14C219.48 539.14 219.993 539.013 220.433 538.76C220.887 538.507 221.233 538.153 221.473 537.7C221.713 537.233 221.833 536.693 221.833 536.08C221.833 535.467 221.707 534.933 221.453 534.48C221.213 534.013 220.873 533.653 220.433 533.4C219.993 533.133 219.473 533 218.873 533C218.273 533 217.747 533.133 217.293 533.4C216.84 533.653 216.48 534.013 216.213 534.48C215.96 534.933 215.833 535.46 215.833 536.06C215.833 536.66 215.96 537.193 216.213 537.66C216.48 538.127 216.84 538.493 217.293 538.76C217.76 539.013 218.293 539.14 218.893 539.14ZM226.195 541V531.5H227.995V541H226.195ZM227.095 529.6C226.762 529.6 226.489 529.493 226.275 529.28C226.062 529.053 225.955 528.773 225.955 528.44C225.955 528.12 226.062 527.853 226.275 527.64C226.489 527.413 226.762 527.3 227.095 527.3C227.429 527.3 227.702 527.413 227.915 527.64C228.129 527.853 228.235 528.12 228.235 528.44C228.235 528.773 228.129 529.053 227.915 529.28C227.702 529.493 227.429 529.6 227.095 529.6ZM237.368 541V535.46C237.368 534.74 237.141 534.147 236.688 533.68C236.235 533.213 235.648 532.98 234.928 532.98C234.448 532.98 234.021 533.087 233.648 533.3C233.275 533.513 232.981 533.807 232.768 534.18C232.555 534.553 232.448 534.98 232.448 535.46L231.708 535.04C231.708 534.32 231.868 533.68 232.188 533.12C232.508 532.56 232.955 532.12 233.528 531.8C234.101 531.467 234.748 531.3 235.468 531.3C236.188 531.3 236.821 531.48 237.368 531.84C237.928 532.2 238.368 532.673 238.688 533.26C239.008 533.833 239.168 534.447 239.168 535.1V541H237.368ZM230.648 541V531.5H232.448V541H230.648ZM246.005 541.2C245.058 541.2 244.205 540.987 243.445 540.56C242.685 540.12 242.085 539.527 241.645 538.78C241.205 538.033 240.985 537.187 240.985 536.24C240.985 535.307 241.198 534.467 241.625 533.72C242.065 532.973 242.652 532.387 243.385 531.96C244.132 531.52 244.965 531.3 245.885 531.3C246.765 531.3 247.538 531.5 248.205 531.9C248.885 532.3 249.412 532.853 249.785 533.56C250.172 534.267 250.365 535.067 250.365 535.96C250.365 536.093 250.358 536.24 250.345 536.4C250.332 536.547 250.305 536.72 250.265 536.92H242.245V535.42H249.305L248.645 536C248.645 535.36 248.532 534.82 248.305 534.38C248.078 533.927 247.758 533.58 247.345 533.34C246.932 533.087 246.432 532.96 245.845 532.96C245.232 532.96 244.692 533.093 244.225 533.36C243.758 533.627 243.398 534 243.145 534.48C242.892 534.96 242.765 535.527 242.765 536.18C242.765 536.847 242.898 537.433 243.165 537.94C243.432 538.433 243.812 538.82 244.305 539.1C244.798 539.367 245.365 539.5 246.005 539.5C246.538 539.5 247.025 539.407 247.465 539.22C247.918 539.033 248.305 538.753 248.625 538.38L249.785 539.56C249.332 540.093 248.772 540.5 248.105 540.78C247.452 541.06 246.752 541.2 246.005 541.2ZM256.728 541.2C255.781 541.2 254.928 540.987 254.168 540.56C253.408 540.12 252.808 539.527 252.368 538.78C251.928 538.033 251.708 537.187 251.708 536.24C251.708 535.307 251.921 534.467 252.348 533.72C252.788 532.973 253.374 532.387 254.108 531.96C254.854 531.52 255.688 531.3 256.608 531.3C257.488 531.3 258.261 531.5 258.928 531.9C259.608 532.3 260.134 532.853 260.508 533.56C260.894 534.267 261.088 535.067 261.088 535.96C261.088 536.093 261.081 536.24 261.068 536.4C261.054 536.547 261.028 536.72 260.988 536.92H252.968V535.42H260.028L259.368 536C259.368 535.36 259.254 534.82 259.028 534.38C258.801 533.927 258.481 533.58 258.068 533.34C257.654 533.087 257.154 532.96 256.568 532.96C255.954 532.96 255.414 533.093 254.948 533.36C254.481 533.627 254.121 534 253.868 534.48C253.614 534.96 253.488 535.527 253.488 536.18C253.488 536.847 253.621 537.433 253.888 537.94C254.154 538.433 254.534 538.82 255.028 539.1C255.521 539.367 256.088 539.5 256.728 539.5C257.261 539.5 257.748 539.407 258.188 539.22C258.641 539.033 259.028 538.753 259.348 538.38L260.508 539.56C260.054 540.093 259.494 540.5 258.828 540.78C258.174 541.06 257.474 541.2 256.728 541.2ZM263.05 541V531.5H264.85V541H263.05ZM264.85 535.58L264.17 535.28C264.17 534.067 264.45 533.1 265.01 532.38C265.57 531.66 266.377 531.3 267.43 531.3C267.91 531.3 268.344 531.387 268.73 531.56C269.117 531.72 269.477 531.993 269.81 532.38L268.63 533.6C268.43 533.387 268.21 533.233 267.97 533.14C267.73 533.047 267.45 533 267.13 533C266.464 533 265.917 533.213 265.49 533.64C265.064 534.067 264.85 534.713 264.85 535.58ZM271.098 541V531.5H272.898V541H271.098ZM271.998 529.6C271.664 529.6 271.391 529.493 271.178 529.28C270.964 529.053 270.858 528.773 270.858 528.44C270.858 528.12 270.964 527.853 271.178 527.64C271.391 527.413 271.664 527.3 271.998 527.3C272.331 527.3 272.604 527.413 272.818 527.64C273.031 527.853 273.138 528.12 273.138 528.44C273.138 528.773 273.031 529.053 272.818 529.28C272.604 529.493 272.331 529.6 271.998 529.6ZM282.27 541V535.46C282.27 534.74 282.044 534.147 281.59 533.68C281.137 533.213 280.55 532.98 279.83 532.98C279.35 532.98 278.924 533.087 278.55 533.3C278.177 533.513 277.884 533.807 277.67 534.18C277.457 534.553 277.35 534.98 277.35 535.46L276.61 535.04C276.61 534.32 276.77 533.68 277.09 533.12C277.41 532.56 277.857 532.12 278.43 531.8C279.004 531.467 279.65 531.3 280.37 531.3C281.09 531.3 281.724 531.48 282.27 531.84C282.83 532.2 283.27 532.673 283.59 533.26C283.91 533.833 284.07 534.447 284.07 535.1V541H282.27ZM275.55 541V531.5H277.35V541H275.55ZM290.448 545.18C289.474 545.18 288.608 545 287.848 544.64C287.101 544.28 286.501 543.773 286.048 543.12L287.208 541.94C287.594 542.433 288.054 542.807 288.588 543.06C289.121 543.327 289.754 543.46 290.488 543.46C291.461 543.46 292.228 543.2 292.788 542.68C293.361 542.173 293.648 541.487 293.648 540.62V538.26L293.968 536.12L293.648 534V531.5H295.448V540.62C295.448 541.527 295.234 542.32 294.808 543C294.394 543.68 293.808 544.213 293.048 544.6C292.301 544.987 291.434 545.18 290.448 545.18ZM290.448 540.84C289.581 540.84 288.801 540.633 288.108 540.22C287.428 539.807 286.888 539.24 286.488 538.52C286.088 537.787 285.888 536.967 285.888 536.06C285.888 535.153 286.088 534.347 286.488 533.64C286.888 532.92 287.428 532.353 288.108 531.94C288.801 531.513 289.581 531.3 290.448 531.3C291.194 531.3 291.854 531.447 292.428 531.74C293.001 532.033 293.454 532.447 293.788 532.98C294.134 533.5 294.321 534.113 294.348 534.82V537.34C294.308 538.033 294.114 538.647 293.768 539.18C293.434 539.7 292.981 540.107 292.408 540.4C291.834 540.693 291.181 540.84 290.448 540.84ZM290.808 539.14C291.394 539.14 291.908 539.013 292.348 538.76C292.801 538.507 293.148 538.153 293.388 537.7C293.628 537.233 293.748 536.693 293.748 536.08C293.748 535.467 293.621 534.933 293.368 534.48C293.128 534.013 292.788 533.653 292.348 533.4C291.908 533.133 291.388 533 290.788 533C290.188 533 289.661 533.133 289.208 533.4C288.754 533.653 288.394 534.013 288.127 534.48C287.874 534.933 287.748 535.46 287.748 536.06C287.748 536.66 287.874 537.193 288.127 537.66C288.394 538.127 288.754 538.493 289.208 538.76C289.674 539.013 290.208 539.14 290.808 539.14ZM297.05 541.8L302.61 526.34H304.29L298.75 541.8H297.05ZM311.763 541V535.46C311.763 534.74 311.536 534.147 311.083 533.68C310.629 533.213 310.043 532.98 309.323 532.98C308.843 532.98 308.416 533.087 308.043 533.3C307.669 533.513 307.376 533.807 307.163 534.18C306.949 534.553 306.843 534.98 306.843 535.46L306.103 535.04C306.103 534.32 306.263 533.68 306.583 533.12C306.903 532.56 307.349 532.12 307.923 531.8C308.496 531.467 309.143 531.3 309.863 531.3C310.583 531.3 311.216 531.48 311.763 531.84C312.323 532.2 312.763 532.673 313.083 533.26C313.403 533.833 313.563 534.447 313.563 535.1V541H311.763ZM305.043 541V531.5H306.843V541H305.043ZM320.34 541.2C319.406 541.2 318.566 540.98 317.82 540.54C317.073 540.1 316.48 539.507 316.04 538.76C315.6 538 315.38 537.153 315.38 536.22C315.38 535.3 315.6 534.473 316.04 533.74C316.48 532.993 317.073 532.4 317.82 531.96C318.566 531.52 319.406 531.3 320.34 531.3C321.26 531.3 322.093 531.52 322.84 531.96C323.6 532.387 324.2 532.973 324.64 533.72C325.08 534.467 325.3 535.3 325.3 536.22C325.3 537.153 325.08 538 324.64 538.76C324.2 539.507 323.6 540.1 322.84 540.54C322.093 540.98 321.26 541.2 320.34 541.2ZM320.34 539.46C320.94 539.46 321.473 539.32 321.94 539.04C322.406 538.76 322.773 538.38 323.04 537.9C323.306 537.407 323.44 536.847 323.44 536.22C323.44 535.607 323.3 535.06 323.02 534.58C322.753 534.1 322.386 533.727 321.92 533.46C321.466 533.18 320.94 533.04 320.34 533.04C319.74 533.04 319.206 533.18 318.74 533.46C318.273 533.727 317.906 534.1 317.64 534.58C317.373 535.06 317.24 535.607 317.24 536.22C317.24 536.847 317.373 537.407 317.64 537.9C317.906 538.38 318.273 538.76 318.74 539.04C319.206 539.32 319.74 539.46 320.34 539.46ZM328.495 541V527.52H330.295V541H328.495ZM326.155 533.14V531.5H332.635V533.14H326.155ZM338.505 541.2C337.558 541.2 336.705 540.987 335.945 540.56C335.185 540.12 334.585 539.527 334.145 538.78C333.705 538.033 333.485 537.187 333.485 536.24C333.485 535.307 333.698 534.467 334.125 533.72C334.565 532.973 335.152 532.387 335.885 531.96C336.632 531.52 337.465 531.3 338.385 531.3C339.265 531.3 340.038 531.5 340.705 531.9C341.385 532.3 341.912 532.853 342.285 533.56C342.672 534.267 342.865 535.067 342.865 535.96C342.865 536.093 342.858 536.24 342.845 536.4C342.832 536.547 342.805 536.72 342.765 536.92H334.745V535.42H341.805L341.145 536C341.145 535.36 341.032 534.82 340.805 534.38C340.578 533.927 340.258 533.58 339.845 533.34C339.432 533.087 338.932 532.96 338.345 532.96C337.732 532.96 337.192 533.093 336.725 533.36C336.258 533.627 335.898 534 335.645 534.48C335.392 534.96 335.265 535.527 335.265 536.18C335.265 536.847 335.398 537.433 335.665 537.94C335.932 538.433 336.312 538.82 336.805 539.1C337.298 539.367 337.865 539.5 338.505 539.5C339.038 539.5 339.525 539.407 339.965 539.22C340.418 539.033 340.805 538.753 341.125 538.38L342.285 539.56C341.832 540.093 341.272 540.5 340.605 540.78C339.952 541.06 339.252 541.2 338.505 541.2ZM349.828 541.2C349.108 541.2 348.454 541.053 347.868 540.76C347.294 540.453 346.834 540.033 346.488 539.5C346.141 538.967 345.948 538.36 345.908 537.68V534.82C345.948 534.127 346.141 533.52 346.488 533C346.848 532.467 347.314 532.053 347.888 531.76C348.474 531.453 349.121 531.3 349.828 531.3C350.694 531.3 351.474 531.52 352.168 531.96C352.874 532.4 353.428 532.993 353.828 533.74C354.228 534.487 354.428 535.327 354.428 536.26C354.428 537.193 354.228 538.033 353.828 538.78C353.428 539.527 352.874 540.12 352.168 540.56C351.474 540.987 350.694 541.2 349.828 541.2ZM344.828 541V526.72H346.628V533.82L346.288 536.12L346.628 538.44V541H344.828ZM349.528 539.5C350.128 539.5 350.654 539.36 351.108 539.08C351.561 538.8 351.921 538.42 352.188 537.94C352.454 537.447 352.588 536.88 352.588 536.24C352.588 535.613 352.454 535.053 352.188 534.56C351.921 534.067 351.561 533.687 351.108 533.42C350.654 533.14 350.134 533 349.548 533C348.948 533 348.421 533.14 347.968 533.42C347.514 533.687 347.161 534.067 346.908 534.56C346.654 535.053 346.528 535.62 346.528 536.26C346.528 536.887 346.648 537.447 346.888 537.94C347.141 538.42 347.494 538.8 347.948 539.08C348.414 539.36 348.941 539.5 349.528 539.5ZM360.808 541.2C359.875 541.2 359.035 540.98 358.288 540.54C357.542 540.1 356.948 539.507 356.508 538.76C356.068 538 355.848 537.153 355.848 536.22C355.848 535.3 356.068 534.473 356.508 533.74C356.948 532.993 357.542 532.4 358.288 531.96C359.035 531.52 359.875 531.3 360.808 531.3C361.728 531.3 362.562 531.52 363.308 531.96C364.068 532.387 364.668 532.973 365.108 533.72C365.548 534.467 365.768 535.3 365.768 536.22C365.768 537.153 365.548 538 365.108 538.76C364.668 539.507 364.068 540.1 363.308 540.54C362.562 540.98 361.728 541.2 360.808 541.2ZM360.808 539.46C361.408 539.46 361.942 539.32 362.408 539.04C362.875 538.76 363.242 538.38 363.508 537.9C363.775 537.407 363.908 536.847 363.908 536.22C363.908 535.607 363.768 535.06 363.488 534.58C363.222 534.1 362.855 533.727 362.388 533.46C361.935 533.18 361.408 533.04 360.808 533.04C360.208 533.04 359.675 533.18 359.208 533.46C358.742 533.727 358.375 534.1 358.108 534.58C357.842 535.06 357.708 535.607 357.708 536.22C357.708 536.847 357.842 537.407 358.108 537.9C358.375 538.38 358.742 538.76 359.208 539.04C359.675 539.32 360.208 539.46 360.808 539.46ZM372.137 541.2C371.203 541.2 370.363 540.98 369.617 540.54C368.87 540.1 368.277 539.507 367.837 538.76C367.397 538 367.177 537.153 367.177 536.22C367.177 535.3 367.397 534.473 367.837 533.74C368.277 532.993 368.87 532.4 369.617 531.96C370.363 531.52 371.203 531.3 372.137 531.3C373.057 531.3 373.89 531.52 374.637 531.96C375.397 532.387 375.997 532.973 376.437 533.72C376.877 534.467 377.097 535.3 377.097 536.22C377.097 537.153 376.877 538 376.437 538.76C375.997 539.507 375.397 540.1 374.637 540.54C373.89 540.98 373.057 541.2 372.137 541.2ZM372.137 539.46C372.737 539.46 373.27 539.32 373.737 539.04C374.203 538.76 374.57 538.38 374.837 537.9C375.103 537.407 375.237 536.847 375.237 536.22C375.237 535.607 375.097 535.06 374.817 534.58C374.55 534.1 374.183 533.727 373.717 533.46C373.263 533.18 372.737 533.04 372.137 533.04C371.537 533.04 371.003 533.18 370.537 533.46C370.07 533.727 369.703 534.1 369.437 534.58C369.17 535.06 369.037 535.607 369.037 536.22C369.037 536.847 369.17 537.407 369.437 537.9C369.703 538.38 370.07 538.76 370.537 539.04C371.003 539.32 371.537 539.46 372.137 539.46ZM385.205 541L380.765 536.14L385.165 531.5H387.345L382.445 536.62L382.525 535.58L387.525 541H385.205ZM379.125 541V526.72H380.925V541H379.125ZM391.539 541.2C391.006 541.2 390.499 541.133 390.019 541C389.553 540.853 389.119 540.653 388.719 540.4C388.319 540.133 387.973 539.82 387.679 539.46L388.839 538.3C389.186 538.727 389.586 539.047 390.039 539.26C390.493 539.46 390.999 539.56 391.559 539.56C392.119 539.56 392.553 539.467 392.859 539.28C393.166 539.08 393.319 538.807 393.319 538.46C393.319 538.113 393.193 537.847 392.939 537.66C392.699 537.46 392.386 537.3 391.999 537.18C391.613 537.047 391.199 536.92 390.759 536.8C390.333 536.667 389.926 536.5 389.539 536.3C389.153 536.1 388.833 535.827 388.579 535.48C388.339 535.133 388.219 534.673 388.219 534.1C388.219 533.527 388.359 533.033 388.639 532.62C388.919 532.193 389.306 531.867 389.799 531.64C390.306 531.413 390.913 531.3 391.619 531.3C392.366 531.3 393.026 531.433 393.599 531.7C394.186 531.953 394.666 532.34 395.039 532.86L393.879 534.02C393.613 533.673 393.279 533.407 392.879 533.22C392.493 533.033 392.053 532.94 391.559 532.94C391.039 532.94 390.639 533.033 390.359 533.22C390.093 533.393 389.959 533.64 389.959 533.96C389.959 534.28 390.079 534.527 390.319 534.7C390.559 534.873 390.873 535.02 391.259 535.14C391.659 535.26 392.073 535.387 392.499 535.52C392.926 535.64 393.333 535.807 393.719 536.02C394.106 536.233 394.419 536.52 394.659 536.88C394.913 537.24 395.039 537.713 395.039 538.3C395.039 539.193 394.719 539.9 394.079 540.42C393.453 540.94 392.606 541.2 391.539 541.2Z" fill="#71717A"/>
</svg>
